<svg width="32" height="36" viewBox="0 0 32 36" fill="none" xmlns="http://www.w3.org/2000/svg">
<path fill-rule="evenodd" clip-rule="evenodd" d="M22.7409 0C28.2794 0 32 3.79279 32 9.43705V25.637C32 31.3306 28.3939 35.0335 22.8131 35.0688L9.26089 35.074C3.72232 35.074 0 31.2813 0 25.637V9.43705C0 3.7417 3.60606 0.0405175 9.1869 0.00704652L22.7391 0H22.7409ZM22.7409 2.64244L9.19571 2.64949C5.09463 2.67415 2.64244 5.2109 2.64244 9.43705V25.637C2.64244 29.8913 5.11753 32.4316 9.25912 32.4316L22.8043 32.4263C26.9054 32.4016 29.3576 29.8614 29.3576 25.637V9.43705C29.3576 5.18271 26.8842 2.64244 22.7409 2.64244ZM22.4011 23.7357C23.1304 23.7357 23.7223 24.3276 23.7223 25.0569C23.7223 25.7862 23.1304 26.3781 22.4011 26.3781H9.68209C8.95278 26.3781 8.36087 25.7862 8.36087 25.0569C8.36087 24.3276 8.95278 23.7357 9.68209 23.7357H22.4011ZM22.4011 16.3606C23.1304 16.3606 23.7223 16.9525 23.7223 17.6818C23.7223 18.4111 23.1304 19.003 22.4011 19.003H9.68209C8.95278 19.003 8.36087 18.4111 8.36087 17.6818C8.36087 16.9525 8.95278 16.3606 9.68209 16.3606H22.4011ZM14.5349 9.00263C15.2642 9.00263 15.8561 9.59454 15.8561 10.3239C15.8561 11.0532 15.2642 11.6451 14.5349 11.6451H9.68156C8.95225 11.6451 8.36034 11.0532 8.36034 10.3239C8.36034 9.59454 8.95225 9.00263 9.68156 9.00263H14.5349Z" fill="#777777"/>
</svg>
