<svg width="35" height="35" viewBox="0 0 35 35" fill="none" xmlns="http://www.w3.org/2000/svg">
<path fill-rule="evenodd" clip-rule="evenodd" d="M17.5028 0C22.1812 0 26.5779 1.81893 29.8803 5.12296C36.7066 11.9492 36.7066 23.0549 29.8803 29.8812C26.5339 33.2292 22.0281 35.0009 17.4637 35.0009C14.9755 35.0009 12.471 34.4749 10.1278 33.3904C9.43731 33.1136 8.79084 32.8531 8.32674 32.8531C7.79262 32.8563 7.0745 33.1038 6.3808 33.3432C4.95757 33.8317 3.18587 34.4407 1.875 33.1348C0.569025 31.8272 1.17153 30.0603 1.6568 28.6387C1.89617 27.9385 2.14206 27.2155 2.14206 26.6684C2.14206 26.2189 1.92549 25.6457 1.59329 24.8201C-1.45671 18.2332 -0.0465118 10.2948 5.12693 5.12459C8.42933 1.82056 12.8244 0 17.5028 0ZM17.5044 2.44261C13.4774 2.44261 9.6946 4.00913 6.85304 6.85232C2.40098 11.3011 1.18945 18.1323 3.8356 23.8529C4.21665 24.7957 4.58467 25.7141 4.58467 26.6684C4.58467 27.621 4.25736 28.5801 3.96913 29.4269C3.73139 30.1238 3.37151 31.1758 3.60274 31.407C3.82909 31.6415 4.88755 31.2719 5.58614 31.0325C6.42477 30.7459 7.37575 30.417 8.3186 30.4104C9.26307 30.4104 10.1538 30.7687 11.0967 31.1481C16.8726 33.8187 23.7038 32.6039 28.1542 28.1551C34.0262 22.2798 34.0262 12.7227 28.1542 6.8507C25.311 4.0075 21.5298 2.44261 17.5044 2.44261ZM23.9316 16.549C24.8305 16.549 25.56 17.2769 25.56 18.1774C25.56 19.0779 24.8305 19.8058 23.9316 19.8058C23.0327 19.8058 22.2967 19.0779 22.2967 18.1774C22.2967 17.2769 23.018 16.549 23.9169 16.549H23.9316ZM17.4036 16.549C18.3025 16.549 19.032 17.2769 19.032 18.1774C19.032 19.0779 18.3025 19.8058 17.4036 19.8058C16.5047 19.8058 15.7687 19.0779 15.7687 18.1774C15.7687 17.2769 16.4885 16.549 17.389 16.549H17.4036ZM10.875 16.549C11.7739 16.549 12.5034 17.2769 12.5034 18.1774C12.5034 19.0779 11.7739 19.8058 10.875 19.8058C9.97615 19.8058 9.24011 19.0779 9.24011 18.1774C9.24011 17.2769 9.9615 16.549 10.8604 16.549H10.875Z" fill="#777777"/>
</svg>
