<svg width="794" height="764" viewBox="0 0 794 764" fill="none" xmlns="http://www.w3.org/2000/svg">
<mask id="mask0_357_3608" style="mask-type:alpha" maskUnits="userSpaceOnUse" x="79" y="119" width="595" height="595">
<ellipse cx="376.522" cy="416.522" rx="297" ry="296.999" transform="rotate(127.6 376.522 416.522)" fill="#D9D9D9"/>
</mask>
<g mask="url(#mask0_357_3608)">
<rect x="-0.564958" y="-2.78338" width="612.356" height="824.961" transform="matrix(-0.831336 -0.555771 0.548856 -0.835917 430.261 987.934)" stroke="black" stroke-width="4"/>
<rect x="-0.564958" y="-2.78338" width="612.356" height="824.961" transform="matrix(-0.831336 -0.555771 0.548856 -0.835917 817.539 1246.84)" stroke="black" stroke-width="4"/>
<rect x="-0.564958" y="-2.78338" width="612.356" height="824.961" transform="matrix(-0.831336 -0.555771 0.548856 -0.835917 1056.72 1406.74)" stroke="black" stroke-width="4"/>
<rect x="-0.564958" y="-2.78338" width="612.356" height="824.961" transform="matrix(-0.831336 -0.555771 0.548856 -0.835917 686.46 1159.21)" stroke="black" stroke-width="4"/>
<rect x="-0.564958" y="-2.78338" width="612.356" height="824.961" transform="matrix(-0.831336 -0.555771 0.548856 -0.835917 84.5179 1514.51)" stroke="black" stroke-width="4"/>
<rect x="-0.564958" y="-2.78338" width="612.356" height="824.961" transform="matrix(-0.831336 -0.555771 0.548856 -0.835917 162.999 1394.98)" stroke="black" stroke-width="4"/>
<rect x="-0.564958" y="-2.78338" width="612.356" height="824.961" transform="matrix(-0.831336 -0.555771 0.548856 -0.835917 246.253 1268.18)" stroke="black" stroke-width="4"/>
<rect x="-0.564958" y="-2.78338" width="612.356" height="824.961" transform="matrix(-0.831336 -0.555771 0.548856 -0.835917 328.447 1143)" stroke="black" stroke-width="4"/>
<rect x="-0.564958" y="-2.78338" width="612.356" height="848.149" transform="matrix(-0.831336 -0.555771 0.548856 -0.835917 472.892 1090.45)" stroke="black" stroke-width="4"/>
</g>
<path d="M195.397 651.374C66.9469 552.453 43.3846 367.618 142.798 238.528C242.21 109.439 426.933 85.0059 555.383 183.926C683.833 282.847 707.395 467.683 607.982 596.772C508.569 725.861 323.847 750.294 195.397 651.374Z" stroke="black" stroke-width="4"/>
</svg>
