<svg width="959" height="706" viewBox="0 0 959 706" fill="none" xmlns="http://www.w3.org/2000/svg">
<g clip-path="url(#clip0_357_3075)">
<rect x="911.16" y="2.13681" width="598" height="854" transform="rotate(85.9329 911.16 2.13681)" stroke="black" stroke-width="4"/>
<rect x="878.889" y="-451.717" width="598" height="854" transform="rotate(85.9329 878.889 -451.717)" stroke="black" stroke-width="4"/>
<rect x="889.811" y="-298.105" width="598" height="854" transform="rotate(85.9329 889.811 -298.105)" stroke="black" stroke-width="4"/>
<rect x="1561.52" y="-44.1065" width="598" height="854" transform="rotate(85.9329 1561.52 -44.1065)" stroke="black" stroke-width="4"/>
<rect x="1413.89" y="-33.6095" width="598" height="854" transform="rotate(85.9329 1413.89 -33.6095)" stroke="black" stroke-width="4"/>
<rect x="1257.29" y="-22.4742" width="598" height="854" transform="rotate(85.9329 1257.29 -22.4742)" stroke="black" stroke-width="4"/>
<rect x="1102.68" y="-11.4808" width="598" height="854" transform="rotate(85.9329 1102.68 -11.4808)" stroke="black" stroke-width="4"/>
<rect x="1009.91" y="-4.88479" width="598" height="878" transform="rotate(85.9329 1009.91 -4.88479)" stroke="black" stroke-width="4"/>
</g>
<defs>
<clipPath id="clip0_357_3075">
<rect width="642.216" height="915.318" fill="white" transform="translate(913.013) rotate(85.9329)"/>
</clipPath>
</defs>
</svg>
